<svg width="204" height="85" viewBox="0 0 204 85" fill="none" xmlns="http://www.w3.org/2000/svg"><path d="M40.38 43.98c0 2.56-.44 4.9-1.32 7.02-.84 2.08-2.06 3.88-3.66 5.4-1.6 1.48-3.54 2.64-5.82 3.48-2.24.84-4.74 1.26-7.5 1.26-2.8 0-5.32-.42-7.56-1.26-2.24-.84-4.14-2-5.7-3.48-1.56-1.52-2.76-3.32-3.6-5.4-.84-2.12-1.26-4.46-1.26-7.02V17.52h10.2v25.62c0 1.16.14 2.26.42 3.3.32 1.04.78 1.98 1.38 2.82.64.8 1.46 1.44 2.46 1.92 1.04.48 2.28.72 3.72.72 1.44 0 2.66-.24 3.66-.72 1.04-.48 1.88-1.12 2.52-1.92.64-.84 1.1-1.78 1.38-2.82.28-1.04.42-2.14.42-3.3V17.52h10.26v26.46zM69.257 60V43.68c0-.84-.08-1.64-.24-2.4-.12-.76-.34-1.42-.66-1.98a3.28 3.28 0 00-1.38-1.38c-.56-.36-1.28-.54-2.16-.54-.88 0-1.66.18-2.34.54-.64.32-1.18.78-1.62 1.38-.44.6-.78 1.3-1.02 2.1-.2.76-.3 1.56-.3 2.4V60h-9.9V30.12h9.54v4.14h.12c.36-.64.82-1.26 1.38-1.86a8.88 8.88 0 012.04-1.62c.8-.44 1.66-.8 2.58-1.08.92-.28 1.9-.42 2.94-.42 2 0 3.7.36 5.1 1.08 1.4.72 2.52 1.66 3.36 2.82.88 1.12 1.5 2.42 1.86 3.9.4 1.48.6 2.96.6 4.44V60h-9.9zm38.533 0v-4.14h-.12a8.04 8.04 0 01-1.44 1.92c-.56.6-1.24 1.12-2.04 1.56-.76.44-1.62.8-2.58 1.08-.92.28-1.9.42-2.94.42-2 0-3.7-.36-5.1-1.08-1.36-.72-2.48-1.64-3.36-2.76-.84-1.16-1.46-2.46-1.86-3.9-.36-1.48-.54-2.98-.54-4.5V30.12h9.9v16.2c0 .84.06 1.64.18 2.4s.34 1.44.66 2.04c.36.6.82 1.08 1.38 1.44.56.32 1.3.48 2.22.48 1.72 0 3.02-.64 3.9-1.92.92-1.28 1.38-2.78 1.38-4.5V30.12h9.84V60h-9.48zm51.975-15.06c0 2.08-.32 4.08-.96 6-.64 1.92-1.58 3.62-2.82 5.1-1.2 1.44-2.68 2.6-4.44 3.48-1.76.88-3.76 1.32-6 1.32-2 0-3.9-.4-5.7-1.2-1.76-.84-3.12-2.02-4.08-3.54h-.12V60h-9.06V14.64h9.84V33.3h.12c.84-1 2.02-1.92 3.54-2.76 1.52-.84 3.38-1.26 5.58-1.26 2.16 0 4.1.42 5.82 1.26 1.76.84 3.24 1.98 4.44 3.42 1.24 1.44 2.18 3.12 2.82 5.04.68 1.88 1.02 3.86 1.02 5.94zm-9.48 0c0-.96-.16-1.9-.48-2.82-.28-.92-.72-1.72-1.32-2.4-.6-.72-1.34-1.3-2.22-1.74-.88-.44-1.9-.66-3.06-.66-1.12 0-2.12.22-3 .66-.88.44-1.64 1.02-2.28 1.74-.6.72-1.08 1.54-1.44 2.46a8.527 8.527 0 000 5.64c.36.92.84 1.74 1.44 2.46.64.72 1.4 1.3 2.28 1.74.88.44 1.88.66 3 .66 1.16 0 2.18-.22 3.06-.66.88-.44 1.62-1.02 2.22-1.74a6.97 6.97 0 001.32-2.46c.32-.96.48-1.92.48-2.88zm48.911 0c0 2.44-.44 4.66-1.32 6.66-.88 1.96-2.08 3.64-3.6 5.04-1.52 1.36-3.28 2.42-5.28 3.18-2 .76-4.14 1.14-6.42 1.14-2.24 0-4.38-.38-6.42-1.14-2-.76-3.76-1.82-5.28-3.18-1.48-1.4-2.66-3.08-3.54-5.04-.88-2-1.32-4.22-1.32-6.66 0-2.44.44-4.64 1.32-6.6.88-1.96 2.06-3.62 3.54-4.98 1.52-1.36 3.28-2.4 5.28-3.12 2.04-.72 4.18-1.08 6.42-1.08 2.28 0 4.42.36 6.42 1.08 2 .72 3.76 1.76 5.28 3.12 1.52 1.36 2.72 3.02 3.6 4.98.88 1.96 1.32 4.16 1.32 6.6zm-9.48 0c0-.96-.16-1.9-.48-2.82-.32-.92-.78-1.72-1.38-2.4-.6-.72-1.34-1.3-2.22-1.74-.88-.44-1.9-.66-3.06-.66-1.16 0-2.18.22-3.06.66-.88.44-1.62 1.02-2.22 1.74-.56.68-1 1.48-1.32 2.4-.28.92-.42 1.86-.42 2.82 0 .96.14 1.9.42 2.82.32.92.78 1.76 1.38 2.52.6.72 1.34 1.3 2.22 1.74.88.44 1.9.66 3.06.66 1.16 0 2.18-.22 3.06-.66.88-.44 1.62-1.02 2.22-1.74.6-.76 1.04-1.6 1.32-2.52.32-.92.48-1.86.48-2.82z" fill="#fff"/><path fill="#2165F5" d="M3 77h36v8H3z"/></svg>