<svg width="38" height="61" viewBox="0 0 38 61" xmlns="http://www.w3.org/2000/svg"><g fill="none"><path d="M37.38 26.98c0 2.56-.43 4.89-1.29 6.99-.86 2.1-2.09 3.9-3.69 5.4-1.6 1.5-3.53 2.67-5.79 3.51-2.26.84-4.77 1.26-7.53 1.26-2.8 0-5.32-.42-7.56-1.26-2.24-.84-4.14-2.01-5.7-3.51-1.56-1.5-2.76-3.3-3.6-5.4-.84-2.1-1.26-4.43-1.26-6.99V.52h10.2v25.62c0 1.16.15 2.26.45 3.3.3 1.04.76 1.97 1.38 2.79.62.82 1.44 1.47 2.46 1.95s2.25.72 3.69.72 2.67-.24 3.69-.72 1.85-1.13 2.49-1.95c.64-.82 1.1-1.75 1.38-2.79.28-1.04.42-2.14.42-3.3V.52h10.26v26.46z" fill="#FFF"/><path fill="#2165F5" d="M1 53h36v8H1z"/></g></svg>