<svg width="204" height="85" viewBox="0 0 204 85" fill="none" xmlns="http://www.w3.org/2000/svg">
<path d="M40.38 43.98C40.38 46.54 39.94 48.88 39.06 51C38.22 53.08 37 54.88 35.4 56.4C33.8 57.88 31.86 59.04 29.58 59.88C27.34 60.72 24.84 61.14 22.08 61.14C19.28 61.14 16.76 60.72 14.52 59.88C12.28 59.04 10.38 57.88 8.82 56.4C7.26 54.88 6.06 53.08 5.22 51C4.38 48.88 3.96 46.54 3.96 43.98V17.52H14.16V43.14C14.16 44.3 14.3 45.4 14.58 46.44C14.9 47.48 15.36 48.42 15.96 49.26C16.6 50.06 17.42 50.7 18.42 51.18C19.46 51.66 20.7 51.9 22.14 51.9C23.58 51.9 24.8 51.66 25.8 51.18C26.84 50.7 27.68 50.06 28.32 49.26C28.96 48.42 29.42 47.48 29.7 46.44C29.98 45.4 30.12 44.3 30.12 43.14V17.52H40.38V43.98ZM69.2569 60V43.68C69.2569 42.84 69.1769 42.04 69.0169 41.28C68.8969 40.52 68.6769 39.86 68.3569 39.3C68.0369 38.7 67.5769 38.24 66.9769 37.92C66.4169 37.56 65.6969 37.38 64.8169 37.38C63.9369 37.38 63.1569 37.56 62.4769 37.92C61.8369 38.24 61.2969 38.7 60.8569 39.3C60.4169 39.9 60.0769 40.6 59.8369 41.4C59.6369 42.16 59.5369 42.96 59.5369 43.8V60H49.6369V30.12H59.1769V34.26H59.2969C59.6569 33.62 60.1169 33 60.6769 32.4C61.2769 31.76 61.9569 31.22 62.7169 30.78C63.5169 30.34 64.3769 29.98 65.2969 29.7C66.2169 29.42 67.1969 29.28 68.2369 29.28C70.2369 29.28 71.9369 29.64 73.3369 30.36C74.7369 31.08 75.8569 32.02 76.6969 33.18C77.5769 34.3 78.1969 35.6 78.5569 37.08C78.9569 38.56 79.1569 40.04 79.1569 41.52V60H69.2569ZM107.79 60V55.86H107.67C107.31 56.54 106.83 57.18 106.23 57.78C105.67 58.38 104.99 58.9 104.19 59.34C103.43 59.78 102.57 60.14 101.61 60.42C100.69 60.7 99.7095 60.84 98.6695 60.84C96.6695 60.84 94.9695 60.48 93.5695 59.76C92.2095 59.04 91.0895 58.12 90.2095 57C89.3695 55.84 88.7495 54.54 88.3495 53.1C87.9895 51.62 87.8095 50.12 87.8095 48.6V30.12H97.7095V46.32C97.7095 47.16 97.7695 47.96 97.8895 48.72C98.0095 49.48 98.2295 50.16 98.5495 50.76C98.9095 51.36 99.3695 51.84 99.9295 52.2C100.49 52.52 101.23 52.68 102.15 52.68C103.87 52.68 105.17 52.04 106.05 50.76C106.97 49.48 107.43 47.98 107.43 46.26V30.12H117.27V60H107.79ZM159.765 44.94C159.765 47.02 159.445 49.02 158.805 50.94C158.165 52.86 157.225 54.56 155.985 56.04C154.785 57.48 153.305 58.64 151.545 59.52C149.785 60.4 147.785 60.84 145.545 60.84C143.545 60.84 141.645 60.44 139.845 59.64C138.085 58.8 136.725 57.62 135.765 56.1H135.645V60H126.585V14.64H136.425V33.3H136.545C137.385 32.3 138.565 31.38 140.085 30.54C141.605 29.7 143.465 29.28 145.665 29.28C147.825 29.28 149.765 29.7 151.485 30.54C153.245 31.38 154.725 32.52 155.925 33.96C157.165 35.4 158.105 37.08 158.745 39C159.425 40.88 159.765 42.86 159.765 44.94ZM150.285 44.94C150.285 43.98 150.125 43.04 149.805 42.12C149.525 41.2 149.085 40.4 148.485 39.72C147.885 39 147.145 38.42 146.265 37.98C145.385 37.54 144.365 37.32 143.205 37.32C142.085 37.32 141.085 37.54 140.205 37.98C139.325 38.42 138.565 39 137.925 39.72C137.325 40.44 136.845 41.26 136.485 42.18C136.165 43.1 136.005 44.04 136.005 45C136.005 45.96 136.165 46.9 136.485 47.82C136.845 48.74 137.325 49.56 137.925 50.28C138.565 51 139.325 51.58 140.205 52.02C141.085 52.46 142.085 52.68 143.205 52.68C144.365 52.68 145.385 52.46 146.265 52.02C147.145 51.58 147.885 51 148.485 50.28C149.085 49.56 149.525 48.74 149.805 47.82C150.125 46.86 150.285 45.9 150.285 44.94ZM199.196 44.94C199.196 47.38 198.756 49.6 197.876 51.6C196.996 53.56 195.796 55.24 194.276 56.64C192.756 58 190.996 59.06 188.996 59.82C186.996 60.58 184.856 60.96 182.576 60.96C180.336 60.96 178.196 60.58 176.156 59.82C174.156 59.06 172.396 58 170.876 56.64C169.396 55.24 168.216 53.56 167.336 51.6C166.456 49.6 166.016 47.38 166.016 44.94C166.016 42.5 166.456 40.3 167.336 38.34C168.216 36.38 169.396 34.72 170.876 33.36C172.396 32 174.156 30.96 176.156 30.24C178.196 29.52 180.336 29.16 182.576 29.16C184.856 29.16 186.996 29.52 188.996 30.24C190.996 30.96 192.756 32 194.276 33.36C195.796 34.72 196.996 36.38 197.876 38.34C198.756 40.3 199.196 42.5 199.196 44.94ZM189.716 44.94C189.716 43.98 189.556 43.04 189.236 42.12C188.916 41.2 188.456 40.4 187.856 39.72C187.256 39 186.516 38.42 185.636 37.98C184.756 37.54 183.736 37.32 182.576 37.32C181.416 37.32 180.396 37.54 179.516 37.98C178.636 38.42 177.896 39 177.296 39.72C176.736 40.4 176.296 41.2 175.976 42.12C175.696 43.04 175.556 43.98 175.556 44.94C175.556 45.9 175.696 46.84 175.976 47.76C176.296 48.68 176.756 49.52 177.356 50.28C177.956 51 178.696 51.58 179.576 52.02C180.456 52.46 181.476 52.68 182.636 52.68C183.796 52.68 184.816 52.46 185.696 52.02C186.576 51.58 187.316 51 187.916 50.28C188.516 49.52 188.956 48.68 189.236 47.76C189.556 46.84 189.716 45.9 189.716 44.94Z" fill="white"/>
<rect x="3" y="77" width="36" height="8" fill="#2165F5"/>
</svg>
