<?xml version="1.0" encoding="UTF-8"?>
<svg width="38px" height="61px" viewBox="0 0 38 61" version="1.1" xmlns="http://www.w3.org/2000/svg" xmlns:xlink="http://www.w3.org/1999/xlink">
    <!-- Generator: Sketch 53 (72520) - https://sketchapp.com -->
    <title>logo-symbol-white</title>
    <desc>Created with Sketch.</desc>
    <g id="Page-1" stroke="none" stroke-width="1" fill="none" fill-rule="evenodd">
        <g id="logo-symbol-white" fill-rule="nonzero">
            <path d="M37.38,26.98 C37.38,29.5400128 36.9500043,31.8699895 36.09,33.97 C35.2299957,36.0700105 34.000008,37.8699925 32.4,39.37 C30.799992,40.8700075 28.8700113,42.0399958 26.61,42.88 C24.3499887,43.7200042 21.8400138,44.14 19.08,44.14 C16.279986,44.14 13.7600112,43.7200042 11.52,42.88 C9.2799888,42.0399958 7.3800078,40.8700075 5.82,39.37 C4.2599922,37.8699925 3.0600042,36.0700105 2.22,33.97 C1.3799958,31.8699895 0.96,29.5400128 0.96,26.98 L0.96,0.52 L11.16,0.52 L11.16,26.14 C11.16,27.3000058 11.3099985,28.3999948 11.61,29.44 C11.9100015,30.4800052 12.3699969,31.4099959 12.99,32.23 C13.6100031,33.0500041 14.4299949,33.6999976 15.45,34.18 C16.4700051,34.6600024 17.6999928,34.9 19.14,34.9 C20.5800072,34.9 21.8099949,34.6600024 22.83,34.18 C23.8500051,33.6999976 24.6799968,33.0500041 25.32,32.23 C25.9600032,31.4099959 26.4199986,30.4800052 26.7,29.44 C26.9800014,28.3999948 27.12,27.3000058 27.12,26.14 L27.12,0.52 L37.38,0.52 L37.38,26.98 Z" id="U" fill="#FFFFFF"></path>
            <rect id="Rectangle" fill="#2165F5" x="1" y="53" width="36" height="8"></rect>
        </g>
    </g>
</svg>